<svg width="119" height="67" viewBox="0 0 119 67" fill="none" xmlns="http://www.w3.org/2000/svg">
<path d="M4.89377 0.0536751L4.83309 0L0 5.48886V55.556H53.7288V66.5804L58.6132 61.696L64.7532 55.556H113.88L118.141 51.5981L119 50.6693V0.0536751H4.89377ZM4.88443 2.62308V49.4184L1.77361 52.5292V6.16097L4.88443 2.62308ZM3.02914 53.7824L6.13996 50.6716H57.4347L54.3239 53.7824H3.02914ZM58.6155 59.1873L55.5047 62.2981V55.1103L58.6155 51.9995V59.1873ZM113.187 53.7824H66.5291L69.6399 50.6716H116.538L113.187 53.7824ZM117.231 48.898H68.9048L64.0204 53.7824L60.3891 57.4137V48.898H6.65804V1.82729H117.229V48.898H117.231Z" fill="#1D1D1B"/>
<path d="M71.9714 23.4979V27.1618H67.9037V31.0964H64.2398V27.1618H60.2399V23.4979H64.2398V19.3625H67.9037V23.4979H71.9714Z" fill="black"/>
<path d="M29.9856 14.2591C31.4582 15.3069 32.5993 16.7795 33.4115 18.6767C34.2213 20.574 34.6273 22.7701 34.6273 25.2671C34.6273 27.7642 34.2213 29.9228 33.4115 31.8201C32.5993 33.7174 31.4582 35.183 29.9856 36.2192C28.513 37.2553 26.8024 37.7734 24.8561 37.7734H15.645V34.7419C16.5178 34.6182 17.1666 34.4549 17.5913 34.2542C17.715 34.0045 17.778 33.7058 17.778 33.3557V17.0688C17.778 16.7188 17.715 16.4201 17.5913 16.1704C17.1666 15.972 16.5178 15.8086 15.645 15.6826V12.6885H24.8561C26.8024 12.6885 28.513 13.2136 29.9856 14.2614V14.2591ZM28.394 31.3697C29.2808 29.8225 29.7242 27.7875 29.7242 25.2671C29.7242 23.5962 29.5235 22.1166 29.1245 20.8308C28.7254 19.5449 28.156 18.5461 27.4209 17.8366C26.6834 17.1248 25.8293 16.7701 24.8561 16.7701H22.198V33.6918H24.8561C26.3287 33.6918 27.5072 32.9193 28.394 31.3697Z" fill="black"/>
<path d="M51.4369 14.2591C52.9095 15.3069 54.0506 16.7795 54.8628 18.6767C55.6726 20.574 56.0786 22.7701 56.0786 25.2671C56.0786 27.7642 55.6726 29.9228 54.8628 31.8201C54.0506 33.7174 52.9095 35.183 51.4369 36.2192C49.9643 37.2553 48.2537 37.7734 46.3074 37.7734H37.0963V34.7419C37.9691 34.6182 38.6179 34.4549 39.0426 34.2542C39.1663 34.0045 39.2293 33.7058 39.2293 33.3557V17.0688C39.2293 16.7188 39.1663 16.4201 39.0426 16.1704C38.6179 15.972 37.9691 15.8086 37.0963 15.6826V12.6885H46.3074C48.2537 12.6885 49.9643 13.2136 51.4369 14.2614V14.2591ZM49.8453 31.3697C50.7321 29.8225 51.1755 27.7875 51.1755 25.2671C51.1755 23.5962 50.9748 22.1166 50.5758 20.8308C50.1767 19.5449 49.6073 18.5461 48.8722 17.8366C48.1347 17.1248 47.2806 16.7701 46.3074 16.7701H43.6493V33.6918H46.3074C47.78 33.6918 48.9585 32.9193 49.8453 31.3697Z" fill="black"/>
<path d="M80.998 12.6979H82.8463C83.2874 12.6979 83.6795 12.7819 84.0179 12.9499C84.3562 13.118 84.62 13.356 84.809 13.6617C84.998 13.9674 85.0914 14.3245 85.0914 14.7305C85.0914 15.1366 84.998 15.4937 84.809 15.7994C84.62 16.1051 84.3586 16.3431 84.0179 16.5112C83.6771 16.6792 83.2874 16.7632 82.8463 16.7632H80.998V12.6956V12.6979ZM82.7997 15.9931C83.2057 15.9931 83.5301 15.8787 83.7728 15.6524C84.0155 15.426 84.1369 15.1179 84.1369 14.7305C84.1369 14.3431 84.0155 14.0351 83.7728 13.8087C83.5301 13.5824 83.2057 13.468 82.7997 13.468H81.9385V15.9907H82.7997V15.9931Z" fill="black"/>
<path d="M88.9513 16.0093V16.7654H85.8008V12.6978H88.8766V13.4539H86.7366V14.3383H88.6246V15.0711H86.7366V16.0116H88.9513V16.0093Z" fill="black"/>
<path d="M83.6795 22.8682H81.7915L81.4321 23.741H80.4683L82.2816 19.6733H83.2128L85.033 23.741H84.0459L83.6865 22.8682H83.6795ZM83.3831 22.1541L82.739 20.5952L82.0949 22.1541H83.3854H83.3831Z" fill="black"/>
<path d="M85.4508 19.6707H86.3912V22.9728H88.4309V23.7406H85.4484V19.673L85.4508 19.6707Z" fill="black"/>
<path d="M89.3596 23.3279C89.0352 23.0059 88.8742 22.5461 88.8742 21.951V19.6733H89.8147V21.916C89.8147 22.6441 90.1181 23.0082 90.7225 23.0082C91.0165 23.0082 91.2429 22.9195 91.3969 22.7445C91.551 22.5671 91.6303 22.2918 91.6303 21.916V19.6733H92.5591V21.951C92.5591 22.5485 92.3981 23.0059 92.0737 23.3279C91.7493 23.65 91.2966 23.811 90.7155 23.811C90.1344 23.811 89.6817 23.65 89.3573 23.3279H89.3596Z" fill="black"/>
<path d="M97.2218 19.6707V23.7383H96.4494L94.4214 21.2669V23.7383H93.4926V19.6707H94.272L96.2953 22.142V19.6707H97.2265H97.2218Z" fill="black"/>
<path d="M99.0141 23.5378C98.6757 23.3558 98.4097 23.1037 98.2183 22.784C98.027 22.4643 97.9313 22.1049 97.9313 21.7058C97.9313 21.3068 98.027 20.9474 98.2183 20.6277C98.4097 20.3079 98.6757 20.0559 99.0141 19.8739C99.3525 19.6918 99.7329 19.6008 100.155 19.6008C100.578 19.6008 100.958 19.6918 101.294 19.8739C101.63 20.0559 101.896 20.3079 102.09 20.6277C102.284 20.9474 102.382 21.3068 102.382 21.7058C102.382 22.1049 102.286 22.4643 102.09 22.784C101.894 23.1037 101.63 23.3558 101.294 23.5378C100.956 23.7198 100.578 23.8108 100.155 23.8108C99.7329 23.8108 99.3525 23.7198 99.0141 23.5378ZM100.806 22.8423C101 22.7327 101.152 22.5786 101.264 22.3803C101.376 22.1819 101.429 21.9579 101.429 21.7058C101.429 21.4538 101.373 21.2298 101.264 21.0314C101.154 20.833 101.002 20.679 100.806 20.5693C100.61 20.4596 100.396 20.4036 100.155 20.4036C99.9149 20.4036 99.6979 20.4596 99.5042 20.5693C99.3105 20.679 99.1588 20.833 99.0468 21.0314C98.9371 21.2298 98.8811 21.4538 98.8811 21.7058C98.8811 21.9579 98.9371 22.1819 99.0468 22.3803C99.1565 22.5786 99.3082 22.7327 99.5042 22.8423C99.6979 22.952 99.9149 23.008 100.155 23.008C100.396 23.008 100.613 22.952 100.806 22.8423Z" fill="black"/>
<path d="M103.497 23.6801C103.196 23.5938 102.956 23.4794 102.774 23.3394L103.094 22.63C103.269 22.7583 103.476 22.861 103.714 22.938C103.955 23.015 104.195 23.0547 104.436 23.0547C104.704 23.0547 104.9 23.015 105.028 22.9357C105.157 22.8563 105.22 22.7513 105.22 22.6183C105.22 22.5203 105.182 22.4409 105.105 22.3779C105.031 22.3149 104.933 22.2636 104.814 22.2239C104.695 22.1842 104.536 22.1422 104.335 22.0956C104.025 22.0209 103.77 21.9485 103.574 21.8739C103.378 21.7992 103.208 21.6825 103.066 21.5191C102.923 21.3558 102.853 21.1387 102.853 20.868C102.853 20.6323 102.916 20.4176 103.045 20.2263C103.173 20.0349 103.364 19.8832 103.623 19.7689C103.88 19.6568 104.195 19.6008 104.569 19.6008C104.828 19.6008 105.082 19.6312 105.329 19.6942C105.577 19.7572 105.794 19.8459 105.98 19.9626L105.689 20.6767C105.313 20.4643 104.937 20.3569 104.562 20.3569C104.298 20.3569 104.104 20.399 103.978 20.4853C103.852 20.5716 103.789 20.6837 103.789 20.8214C103.789 20.959 103.861 21.0641 104.006 21.1317C104.151 21.1994 104.373 21.2671 104.671 21.3324C104.982 21.4071 105.236 21.4795 105.432 21.5541C105.63 21.6288 105.798 21.7432 105.941 21.9042C106.083 22.0652 106.153 22.2776 106.153 22.5483C106.153 22.7817 106.088 22.994 105.959 23.1854C105.829 23.3768 105.635 23.5284 105.376 23.6405C105.117 23.7525 104.8 23.8085 104.429 23.8085C104.106 23.8085 103.796 23.7642 103.495 23.6778L103.497 23.6801Z" fill="black"/>
<path d="M83.6982 26.8281C83.9643 26.9472 84.1673 27.1198 84.312 27.3392C84.4544 27.5609 84.5267 27.8223 84.5267 28.1233C84.5267 28.4244 84.4544 28.6834 84.312 28.9051C84.1697 29.1268 83.9643 29.2995 83.6982 29.4162C83.4322 29.5352 83.1195 29.5936 82.7601 29.5936H81.941V30.7161H81.0005V26.6484H82.7624C83.1218 26.6484 83.4369 26.7091 83.7006 26.8281H83.6982ZM83.3529 28.6437C83.4999 28.5224 83.5746 28.3474 83.5746 28.1233C83.5746 27.8993 83.4999 27.7196 83.3529 27.5983C83.2058 27.4769 82.9911 27.4162 82.7088 27.4162H81.941V28.8281H82.7088C82.9911 28.8281 83.2058 28.7674 83.3529 28.6461V28.6437Z" fill="black"/>
<path d="M87.6723 29.8433H85.7844L85.425 30.7161H84.4612L86.2745 26.6484H87.2056L89.0259 30.7161H88.0387L87.6793 29.8433H87.6723ZM87.376 29.1292L86.7319 27.5702L86.0878 29.1292H87.3783H87.376Z" fill="black"/>
<path d="M92.0366 30.7161L91.2524 29.5819H90.3866V30.7161H89.4462V26.6484H91.2081C91.5675 26.6484 91.8826 26.7091 92.1463 26.8281C92.41 26.9472 92.6153 27.1198 92.76 27.3392C92.9024 27.5609 92.9747 27.8223 92.9747 28.1233C92.9747 28.4244 92.9024 28.6858 92.7577 28.9051C92.613 29.1245 92.4053 29.2925 92.1393 29.4069L93.0517 30.7137H92.0412L92.0366 30.7161ZM91.7985 27.5983C91.6515 27.4769 91.4368 27.4162 91.1544 27.4162H90.3866V28.8351H91.1544C91.4368 28.8351 91.6515 28.7721 91.7985 28.6484C91.9456 28.5247 92.0202 28.3497 92.0202 28.1257C92.0202 27.9016 91.9456 27.7219 91.7985 27.6006V27.5983Z" fill="black"/>
<path d="M96.3959 29.8433H94.508L94.1486 30.7161H93.1848L94.998 26.6484H95.9292L97.7495 30.7161H96.7623L96.4029 29.8433H96.3959ZM96.0995 29.1292L95.4554 27.5702L94.8113 29.1292H96.1019H96.0995Z" fill="black"/>
<path d="M83.6795 36.8189H81.7915L81.4321 37.6917H80.4683L82.2816 33.624H83.2128L85.033 37.6917H84.0459L83.6865 36.8189H83.6795ZM83.3831 36.1047L82.739 34.5458L82.0949 36.1047H83.3854H83.3831Z" fill="black"/>
<path d="M85.4508 33.6216H86.3912V36.9238H88.4309V37.6916H85.4484V33.6239L85.4508 33.6216Z" fill="black"/>
<path d="M89.3596 37.2786C89.0352 36.9565 88.8742 36.4968 88.8742 35.9017V33.624H89.8147V35.8667C89.8147 36.5948 90.1181 36.9589 90.7225 36.9589C91.0165 36.9589 91.2429 36.8702 91.3969 36.6952C91.551 36.5178 91.6303 36.2424 91.6303 35.8667V33.624H92.5591V35.9017C92.5591 36.4991 92.3981 36.9565 92.0737 37.2786C91.7493 37.6006 91.2966 37.7617 90.7155 37.7617C90.1344 37.7617 89.6817 37.6006 89.3573 37.2786H89.3596Z" fill="black"/>
<path d="M97.2218 33.6216V37.6892H96.4494L94.4214 35.2178V37.6892H93.4926V33.6216H94.272L96.2953 36.093V33.6216H97.2265H97.2218Z" fill="black"/>
<path d="M99.0141 37.4887C98.6757 37.3067 98.4097 37.0546 98.2183 36.7349C98.027 36.4152 97.9313 36.0558 97.9313 35.6568C97.9313 35.2577 98.027 34.8983 98.2183 34.5786C98.4097 34.2589 98.6757 34.0068 99.0141 33.8248C99.3525 33.6428 99.7329 33.5518 100.155 33.5518C100.578 33.5518 100.958 33.6428 101.294 33.8248C101.63 34.0068 101.896 34.2589 102.09 34.5786C102.284 34.8983 102.382 35.2577 102.382 35.6568C102.382 36.0558 102.286 36.4152 102.09 36.7349C101.894 37.0546 101.63 37.3067 101.294 37.4887C100.956 37.6707 100.578 37.7617 100.155 37.7617C99.7329 37.7617 99.3525 37.6707 99.0141 37.4887ZM100.806 36.7933C101 36.6836 101.152 36.5296 101.264 36.3312C101.376 36.1328 101.429 35.9088 101.429 35.6568C101.429 35.4047 101.373 35.1807 101.264 34.9823C101.154 34.7839 101.002 34.6299 100.806 34.5202C100.61 34.4106 100.396 34.3546 100.155 34.3546C99.9149 34.3546 99.6979 34.4106 99.5042 34.5202C99.3105 34.6299 99.1588 34.7839 99.0468 34.9823C98.9371 35.1807 98.8811 35.4047 98.8811 35.6568C98.8811 35.9088 98.9371 36.1328 99.0468 36.3312C99.1565 36.5296 99.3082 36.6836 99.5042 36.7933C99.6979 36.9029 99.9149 36.959 100.155 36.959C100.396 36.959 100.613 36.9029 100.806 36.7933Z" fill="black"/>
<path d="M103.497 37.6311C103.196 37.5447 102.956 37.4304 102.774 37.2903L103.094 36.5809C103.269 36.7093 103.476 36.8119 103.714 36.8889C103.955 36.966 104.195 37.0056 104.436 37.0056C104.704 37.0056 104.9 36.966 105.028 36.8866C105.157 36.8073 105.22 36.7023 105.22 36.5692C105.22 36.4712 105.182 36.3919 105.105 36.3289C105.031 36.2658 104.933 36.2145 104.814 36.1748C104.695 36.1352 104.536 36.0932 104.335 36.0465C104.025 35.9718 103.77 35.8995 103.574 35.8248C103.378 35.7501 103.208 35.6334 103.066 35.4701C102.923 35.3067 102.853 35.0897 102.853 34.819C102.853 34.5833 102.916 34.3686 103.045 34.1772C103.173 33.9858 103.364 33.8341 103.623 33.7198C103.88 33.6078 104.195 33.5518 104.569 33.5518C104.828 33.5518 105.082 33.5821 105.329 33.6451C105.577 33.7081 105.794 33.7968 105.98 33.9135L105.689 34.6276C105.313 34.4152 104.937 34.3079 104.562 34.3079C104.298 34.3079 104.104 34.3499 103.978 34.4362C103.852 34.5226 103.789 34.6346 103.789 34.7723C103.789 34.91 103.861 35.015 104.006 35.0827C104.151 35.1503 104.373 35.218 104.671 35.2834C104.982 35.358 105.236 35.4304 105.432 35.5051C105.63 35.5797 105.798 35.6941 105.941 35.8551C106.083 36.0161 106.153 36.2285 106.153 36.4992C106.153 36.7326 106.088 36.945 105.959 37.1363C105.829 37.3277 105.635 37.4794 105.376 37.5914C105.117 37.7034 104.8 37.7594 104.429 37.7594C104.106 37.7594 103.796 37.7151 103.495 37.6287L103.497 37.6311Z" fill="black"/>
<path d="M106.795 37.5751C106.685 37.4678 106.631 37.3301 106.631 37.1691C106.631 37.0081 106.685 36.868 106.795 36.7653C106.902 36.6627 107.037 36.6113 107.196 36.6113C107.355 36.6113 107.488 36.6627 107.597 36.7653C107.705 36.868 107.761 37.0034 107.761 37.1691C107.761 37.3348 107.707 37.4678 107.597 37.5751C107.488 37.6825 107.355 37.7385 107.196 37.7385C107.037 37.7385 106.904 37.6848 106.795 37.5751Z" fill="black"/>
</svg>
