<?xml version="1.0" encoding="UTF-8"?><svg id="Camada_2" xmlns="http://www.w3.org/2000/svg" xmlns:xlink="http://www.w3.org/1999/xlink" viewBox="0 0 532.55 304.06"><defs><style>.cls-1{fill:#f91e77;}.cls-2{fill:#66e2ff;}.cls-3{fill:#fff312;}.cls-4{fill:#ffe36e;}.cls-5{fill:#ffca55;}.cls-6{fill:#ffa733;}.cls-7{fill:#ffc533;}.cls-8{fill:#ffad29;}.cls-9{fill:#e6d2ff;}.cls-10{fill:#ff3386;}.cls-11{fill:#ff5097;}.cls-12{fill:#efe9a3;}.cls-13{fill:#b276ff;}.cls-14{fill:#abf3ff;}.cls-15{fill:#e51a77;}.cls-16{fill:#e2821a;}.cls-17{fill:#0ff7d0;}.cls-18{fill:#03e1ff;}.cls-19{fill:#18d6b2;}.cls-20{fill:#44af1c;}.cls-21{fill:url(#Degradado_sin_nombre_131);}.cls-22{fill:url(#Degradado_sin_nombre_132);}.cls-23{fill:url(#Degradado_sin_nombre_133);}.cls-24{fill:url(#Degradado_sin_nombre_130);}</style><linearGradient id="Degradado_sin_nombre_132" x1="295.34" y1="60.91" x2="352.28" y2="156.81" gradientUnits="userSpaceOnUse"><stop offset="0" stop-color="#ffe56d"/><stop offset=".01" stop-color="#ffe570" stop-opacity=".98"/><stop offset=".13" stop-color="#ffeb91" stop-opacity=".75"/><stop offset=".25" stop-color="#fff0ae" stop-opacity=".55"/><stop offset=".37" stop-color="#fff5c7" stop-opacity=".38"/><stop offset=".5" stop-color="#fff8db" stop-opacity=".24"/><stop offset=".62" stop-color="#fffbeb" stop-opacity=".14"/><stop offset=".74" stop-color="#fffdf6" stop-opacity=".06"/><stop offset=".87" stop-color="#fffefc" stop-opacity=".02"/><stop offset="1" stop-color="#fff" stop-opacity="0"/></linearGradient><linearGradient id="Degradado_sin_nombre_131" x1="291.95" y1="39.82" x2="303.27" y2="56.33" gradientUnits="userSpaceOnUse"><stop offset="0" stop-color="#3e3f3f"/><stop offset=".54" stop-color="#808182"/><stop offset="1" stop-color="#bdbfc0"/></linearGradient><linearGradient id="Degradado_sin_nombre_130" x1="277.51" y1="21.48" x2="304.81" y2="55.68" gradientUnits="userSpaceOnUse"><stop offset="0" stop-color="#e0e1e1"/><stop offset=".2" stop-color="#d2d3d3"/><stop offset=".58" stop-color="#adb0b0"/><stop offset="1" stop-color="#7d8283"/></linearGradient><linearGradient id="Degradado_sin_nombre_133" x1="252.34" y1="161.08" x2="252.34" y2="86.94" gradientTransform="translate(161.6 -142.11) rotate(45)" gradientUnits="userSpaceOnUse"><stop offset="0" stop-color="#fff4aa"/><stop offset="0" stop-color="#fff4ab"/><stop offset=".12" stop-color="#fff8b8"/><stop offset=".25" stop-color="#fffac0"/><stop offset=".52" stop-color="#fffbc3"/><stop offset=".74" stop-color="#fffac0"/><stop offset=".86" stop-color="#fff8b8"/><stop offset=".95" stop-color="#fff4ab"/><stop offset="1" stop-color="#fff1a0"/></linearGradient></defs><g id="OBJECTS"><polygon class="cls-9" points="223.91 54.27 224.97 56.42 227.34 56.76 225.62 58.43 226.03 60.78 223.91 59.67 221.8 60.78 222.2 58.43 220.49 56.76 222.85 56.42 223.91 54.27"/><polygon class="cls-9" points="86.03 19.13 87.09 21.27 89.45 21.61 87.74 23.28 88.15 25.64 86.03 24.53 83.92 25.64 84.32 23.28 82.61 21.61 84.97 21.27 86.03 19.13"/><polygon class="cls-9" points="182.8 297.55 183.86 299.69 186.22 300.04 184.51 301.71 184.92 304.06 182.8 302.95 180.69 304.06 181.09 301.71 179.38 300.04 181.74 299.69 182.8 297.55"/><polygon class="cls-9" points="24.86 279.64 25.92 281.78 28.28 282.13 26.57 283.79 26.97 286.15 24.86 285.04 22.74 286.15 23.15 283.79 21.44 282.13 23.8 281.78 24.86 279.64"/><polygon class="cls-9" points="67.97 125.27 69.03 127.41 71.4 127.75 69.68 129.42 70.09 131.78 67.97 130.66 65.86 131.78 66.26 129.42 64.55 127.75 66.92 127.41 67.97 125.27"/><polygon class="cls-9" points="359.42 264.55 360.47 266.69 362.84 267.04 361.13 268.71 361.53 271.06 359.42 269.95 357.3 271.06 357.7 268.71 355.99 267.04 358.36 266.69 359.42 264.55"/><polygon class="cls-9" points="529.13 291.04 530.18 293.18 532.55 293.53 530.84 295.2 531.24 297.55 529.13 296.44 527.01 297.55 527.42 295.2 525.7 293.53 528.07 293.18 529.13 291.04"/><polygon class="cls-9" points="418.47 27.18 419.53 29.33 421.9 29.67 420.18 31.34 420.59 33.69 418.47 32.58 416.36 33.69 416.76 31.34 415.05 29.67 417.42 29.33 418.47 27.18"/><polygon class="cls-9" points="529.13 119.85 530.18 121.99 532.55 122.33 530.84 124 531.24 126.36 529.13 125.24 527.01 126.36 527.42 124 525.7 122.33 528.07 121.99 529.13 119.85"/><circle class="cls-6" cx="461.2" cy="44.48" r="16.03" transform="translate(10.43 151.68) rotate(-18.89)"/><path class="cls-7" d="m449.39,55.29c.96,1.04,2.03,1.95,3.21,2.7,2.43-.92,4.91-2.11,6.6-3.73-3.61-1.91-6.64-.11-9.81,1.03Z"/><path class="cls-7" d="m466.62,29.42c-3.15-1.14-6.68-1.32-10.13-.25-3.83,1.18-6.89,3.67-8.86,6.82,6.93-1.4,14.2-1.88,18.99-6.57Z"/><path class="cls-7" d="m476.46,39.6c-9.06,6.77-19.99,7.43-31,7.86.11.58.25,1.16.42,1.74.19.63.43,1.23.69,1.81,10.11-2.16,23.98-1.15,30.4-9.29-.11-.65-.26-1.3-.46-1.95-.02-.06-.04-.12-.06-.17Z"/><path class="cls-7" d="m462.4,58.75c2.78.06,5-.16,7.16-.6,3.22-1.97,5.58-4.99,6.77-8.46-5.14,2.4-12.27,2.34-13.93,9.06Z"/><path class="cls-7" d="m473.54,34.26c-.68-.82-1.43-1.57-2.25-2.23-8.41,2.62-15.96,8.04-25.33,7.54-.5,1.55-.78,3.17-.79,4.84,9.26-3.08,21.25-1.39,28.37-10.14Z"/><circle class="cls-10" cx="24.06" cy="218.75" r="17.26" transform="translate(-165.09 106.27) rotate(-52.99)"/><path class="cls-15" d="m7.65,224.05c5.93,5.04,13.12,8.94,20.53,11.45,1.47-.36,2.87-.92,4.19-1.64-9.47-2.01-17.48-7.58-25.46-13.34.13,1.21.38,2.39.75,3.53Z"/><path class="cls-15" d="m17.01,203.01c7.55,5.35,15.68,10.19,24.21,13.86-.29-2.67-1.21-5.21-2.62-7.43-4.68-2.05-9.07-4.88-13.18-7.9-2.95-.23-5.83.3-8.41,1.47Z"/><path class="cls-15" d="m8.1,212.22c8.83,7.58,18.58,13.97,29.51,17.19.87-1.1,1.6-2.32,2.19-3.63-10.76-3.89-20.75-9.8-28.98-18.07-1.11,1.33-2.04,2.84-2.72,4.5Z"/><circle class="cls-18" cx="510.45" cy="165.98" r="20.95" transform="translate(-26.06 149.73) rotate(-16.28)"/><path class="cls-20" d="m508.74,148.64c3.52,3.52,7.03,1.29,9.63-2.05-1.09-.45-2.23-.82-3.43-1.08-1.23-.27-2.45-.41-3.67-.45-.54,1.62-3.52,2.6-2.54,3.58Z"/><path class="cls-20" d="m500.25,175.34c1.21-2.43,6.07-4.85,3.64-7.28-3.64-2.43-9.71-1.21-9.71-7.28-.97,0-1.95-1.56-3.55-1.55-.25.73-.47,1.48-.64,2.26-2.48,11.3,4.67,22.48,15.97,24.96.05.01.1.02.15.03-.05-5.49,2.69-11.13-5.86-11.13Z"/><path class="cls-20" d="m521.29,148.06c-.97,3.54.43,7.86-1.62,7.86-4.85,1.21-12.14,0-9.71,7.28,1.21,1.21,3.64,2.43,4.85,1.21v-2.43c1.21-1.21,2.43,2.43,3.64,1.21,1.21,2.43-2.43,4.85,0,7.28,1.21,0,4.85-1.21,6.07,0,1.21,2.43-3.64,3.64-2.43,4.85,1.7.85,3.4,2.29,5.52,2.66,1.55-2.2,2.69-4.74,3.31-7.53,1.98-9-2.16-17.9-9.63-22.41Z"/><circle class="cls-17" cx="73.23" cy="69.15" r="15.41" transform="translate(-24.67 45.47) rotate(-29.76)"/><path class="cls-19" d="m76.21,65.53c.43.03.79-.31,1.15-.65.15-.22.14-.49,0-.62-3.16-3.05-7.19-5.81-9.29-9.62-1.26.45-2.45,1.06-3.54,1.81,3.34,3.72,6.42,8.26,11.69,9.08Z"/><path class="cls-19" d="m79.29,56.95c-.33-.09-.89.02-1.1.49-.31.8.02,1.5.67,2.04,3.44,3.16,10.41,4.73,9.63,10.42-2.55-.97-4.09-3.69-6.87-3.84-1.62-.18-2.84,2.3-1.64,3.69,2.05,2.15,5.69,2.37,6.5,5.5.12.43.22.85.3,1.28.55-1.01.99-2.1,1.31-3.26,1.26-4.54.34-9.17-2.11-12.78-2.09-1.48-4.22-2.91-6.68-3.53Z"/><path class="cls-19" d="m59.49,64.51c1.3-.23,1.17-2.05.72-3.6-.64,1-1.16,2.1-1.56,3.27.24.25.52.38.84.33Z"/><path class="cls-19" d="m73.88,68.85c-2.77-2.09-6.43-3.19-9.83-2.99-.62,0,.55,1.83,1,2.74.71,1.25,1.65,2.31,2.68,3.38,1.56,1.67,3.62,2.5,5.14,4.33,1.84,2.34,3.99,5.06,3.73,7.88,2.65-.6,5.11-1.89,7.1-3.73-.08-.05-.15-.1-.22-.15-4-3.05-5.6-8.42-9.6-11.47Z"/><path class="cls-19" d="m65.63,73.52c-2-2.32-4.28-4.27-7-5.28-.34.35-.6.75-.81,1.17.11,6.66,4.56,12.73,11.3,14.6,1.34.37,2.68.55,4.01.56-3.2-3.05-4.44-7.54-7.5-11.05Z"/><path class="cls-11" d="m69.32,79.15c-12.99-3.54-19.86-12.22-18.94-15.24s4.59-3.08,9.83-3.01c-.53.62-.78,1.53-1.17,2.25-2.42.16-3.28.74-3.58,1.82-.82,3.01,7.79,7.05,16.72,9.48,8.93,2.43,18.4,3.32,19.22.31.29-1.08-2.85-3.84-2.85-3.84l.08-2.38s8.74,4.16,7.23,7.93c-1.51,3.77-13.55,6.22-26.53,2.68Z"/><path class="cls-4" d="m496.99,265.64c.5-1.11,8.31,2.85,8.91,1.52.54-1.19-14.99-12.45-18.39-14.69-1.39-.99-3.04-1.64-4.86-1.83-5.6-.58-10.62,3.49-11.2,9.1-.33,3.18.84,6.17,2.94,8.27h0s18.99,18.23,20.45,16.95c1.46-1.27-5.39-8.48-5.13-8.98.26-.51,14.05,9.85,15.35,7.87,1.31-1.98-12.85-13.16-12.12-13.72.73-.56,14.02,7.01,14.64,5.08.62-1.93-11.1-8.46-10.59-9.57Z"/><path class="cls-5" d="m498.24,260.26c-.14.29-.32.58-.58.87-2.25,1.88-5.52,1.17-6.91,2.71-1.91,2.74-.68,8.52-3.27,8.82-2.59.3-4.22-.28-5.06.43s-.48,1.11-.66,1.8c5.51,5.01,12.23,10.81,13.07,10.07,1.46-1.27-5.39-8.48-5.13-8.98.26-.51,14.05,9.85,15.35,7.87,1.31-1.98-12.85-13.16-12.12-13.72.73-.56,14.02,7.01,14.64,5.08.62-1.93-11.1-8.46-10.59-9.57.5-1.11,8.31,2.85,8.91,1.52.27-.59-3.44-3.67-7.66-6.9Z"/><g id="surface1"><path class="cls-8" d="m473.86,260.04c.45-4.33,4.33-7.49,8.67-7.04,4.33.45,7.49,4.33,7.04,8.67-.45,4.33-4.33,7.49-8.67,7.04-4.33-.45-7.49-4.33-7.04-8.67Z"/></g><g id="surface1-2"><path class="cls-16" d="m474.45,262.27c.06-.53.53-.92,1.06-.86s.92.53.86,1.06-.53.92-1.06.86-.92-.53-.86-1.06Z"/></g><g id="surface1-3"><path class="cls-16" d="m477.01,262.29c.04-.35.35-.61.7-.57.35.04.61.35.57.7-.04.35-.35.61-.7.57-.35-.04-.61-.35-.57-.7Z"/></g><g id="surface1-4"><path class="cls-16" d="m486.99,259.14c.04-.35.35-.61.7-.57.35.04.61.35.57.7-.04.35-.35.61-.7.57-.35-.04-.61-.35-.57-.7Z"/></g><g id="surface1-5"><path class="cls-16" d="m475.81,258.92c.09-.91.91-1.57,1.81-1.47s1.57.91,1.47,1.81c-.09.91-.91,1.57-1.81,1.47s-1.57-.91-1.47-1.81Z"/></g><path class="cls-9" d="m99.77,256.39c0-.7.57-1.26,1.26-1.26s1.26.57,1.26,1.26-.57,1.26-1.26,1.26-1.26-.57-1.26-1.26Z"/><circle class="cls-9" cx="1.26" cy="1.26" r="1.26"/><circle class="cls-9" cx="529.13" cy="6.76" r="1.26"/><circle class="cls-9" cx="14.5" cy="147.26" r="1.26"/><circle class="cls-9" cx="204.93" cy="6.76" r="1.26"/><circle class="cls-9" cx="243.82" cy="279.64" r="1.26"/><path class="cls-9" d="m425.24,164.71c0-.7.57-1.26,1.26-1.26s1.26.57,1.26,1.26-.57,1.26-1.26,1.26-1.26-.57-1.26-1.26Z"/><path class="cls-9" d="m452.53,297.86c0-.7.57-1.26,1.26-1.26s1.26.57,1.26,1.26-.57,1.26-1.26,1.26-1.26-.57-1.26-1.26Z"/><path class="cls-9" d="m140.97,88.07c0-.7.57-1.26,1.26-1.26s1.26.57,1.26,1.26-.57,1.26-1.26,1.26-1.26-.57-1.26-1.26Z"/><path class="cls-9" d="m425.24,74.17c0-.7.57-1.26,1.26-1.26s1.26.57,1.26,1.26-.57,1.26-1.26,1.26-1.26-.57-1.26-1.26Z"/><path class="cls-22" d="m286.03,49.86l13.61,80.29s15.44,4.13,33.16-9.2c17.72-13.34,17.72-29.1,17.72-29.1l-50.86-47.58-13.62,5.59Z"/><path class="cls-21" d="m274.51,34.92c-1.75,1.66-2.61,3.29-2.04,4.68.97,2.38,2.43,4.41,4.22,6.02,4.55,4.1,11.22,5.5,17.27,3.03,1.96-.8,3.68-1.93,5.13-3.31,3.02-2.87,4.84-6.8,5.11-10.93.15-2.4-.22-4.88-1.19-7.26-2.16-5.31-21.81,1.42-28.5,7.77Z"/><path class="cls-24" d="m310.96,24.9c-1.27-3.12-5.74-4.54-11.7-4.25,1.19,1.35,2.18,2.92,2.9,4.68.56,1.39-.3,3.02-2.04,4.68-6.69,6.35-26.34,13.07-28.5,7.77-.74-1.82-1.13-3.7-1.21-5.56-4.74,4.06-7.11,8.36-5.8,11.57,2.24,5.51,14.44,5.74,27.24.53,12.8-5.22,21.36-13.91,19.12-19.42Z"/><path class="cls-2" d="m300.11,30c1.75-1.66,2.61-3.29,2.04-4.68-.97-2.38-2.43-4.41-4.22-6.02-4.55-4.1-11.22-5.5-17.27-3.03-1.96.8-3.68,1.93-5.13,3.31-3.02,2.87-4.84,6.8-5.11,10.93-.15,2.4.22,4.88,1.19,7.26,2.16,5.31,21.81-1.42,28.5-7.77Z"/><path class="cls-14" d="m280.66,16.28c-1.96.8-3.68,1.93-5.13,3.31-3.02,2.87-4.84,6.8-5.11,10.93-.15,2.4.22,4.88,1.19,7.26.78,1.9,3.81,2.25,7.68,1.63,2.86-8.36,6.93-16.51,12.26-23.66-3.47-1.03-7.29-.94-10.9.53Z"/><path class="cls-3" d="m269.97,41.67c.04.86-.63,1.58-1.48,1.62-.86.04-1.58-.63-1.62-1.48s.63-1.58,1.48-1.62c.86-.04,1.58.63,1.62,1.48Z"/><path class="cls-1" d="m278.31,44.42c.04.86-.63,1.58-1.48,1.62s-1.58-.63-1.62-1.48c-.04-.86.63-1.58,1.48-1.62.86-.04,1.58.63,1.62,1.48Z"/><path class="cls-1" d="m303.71,34.48c.04.86-.63,1.58-1.48,1.62-.86.04-1.58-.63-1.62-1.48-.04-.86.63-1.58,1.48-1.62.86-.04,1.58.63,1.62,1.48Z"/><path class="cls-3" d="m291.58,40.73c.04.86-.63,1.58-1.48,1.62-.86.04-1.58-.63-1.62-1.48-.04-.86.63-1.58,1.48-1.62.86-.04,1.58.63,1.62,1.48Z"/><path class="cls-3" d="m309,25.4c.04.86-.63,1.58-1.48,1.62-.86.04-1.58-.63-1.62-1.48-.04-.86.63-1.58,1.48-1.62.86-.04,1.58.63,1.62,1.48Z"/><path class="cls-13" d="m181.6,143.89h-31.38v-13.74c1.85-3.31,5.07-8.38,9.36-14.91l15.3-23.39h26.22v37.33h8.67v14.72h-8.67v12.28h-19.49v-12.28Zm.29-14.72v-16.47c0-1.95.1-4.29.19-6.82h-.19c-1.17,2.24-2.44,4.48-3.7,6.43l-7.8,11.99c-1.07,1.66-2.14,3.21-3.41,4.87h14.91Z"/><path class="cls-13" d="m331.02,143.89h-31.38v-13.74c1.85-3.31,5.07-8.38,9.36-14.91l15.3-23.39h26.22v37.33h8.67v14.72h-8.67v12.28h-19.49v-12.28Zm.29-14.72v-16.47c0-1.95.1-4.29.19-6.82h-.19c-1.17,2.24-2.44,4.48-3.7,6.43l-7.8,11.99c-1.07,1.66-2.15,3.21-3.41,4.87h14.91Z"/><circle class="cls-23" cx="252.34" cy="124.01" r="37.07" transform="translate(-13.78 214.75) rotate(-45)"/><path class="cls-12" d="m242.45,95.63c1.91,1.7,1.88,4.84-.07,7.02-1.94,2.18-5.06,2.57-6.97.87-1.91-1.7-1.88-4.84.07-7.02,1.94-2.18,5.06-2.57,6.97-.87Z"/><path class="cls-12" d="m241.31,149.13c-1.15,2.28-4.19,3.07-6.8,1.76-2.61-1.31-3.79-4.22-2.64-6.5,1.15-2.28,4.19-3.07,6.8-1.76,2.61,1.31,3.79,4.22,2.64,6.5Z"/><path class="cls-12" d="m264.66,151.62c-1.11-1.11-.81-3.22.67-4.71,1.49-1.49,3.59-1.79,4.71-.67,1.11,1.11.81,3.22-.67,4.71-1.49,1.49-3.59,1.79-4.71.67Z"/><path class="cls-12" d="m235.66,106.66c-.24.25-.38.59-.38.94s.14.69.38.94c.25.24.59.38.94.38s.69-.15.94-.38c.24-.25.38-.59.38-.94s-.15-.69-.38-.94c-.49-.49-1.39-.49-1.88,0Z"/><path class="cls-12" d="m269.46,142.61c-.16.47-.13.97.09,1.35.23.37.66.63,1.15.7.5.05,1.08-.08,1.55-.37.47-.29.85-.74,1.04-1.21.16-.47.13-.97-.09-1.35-.23-.37-.66-.63-1.15-.7-1.02-.11-2.22.62-2.59,1.58Z"/><path class="cls-12" d="m272.82,146.12c-.21.47-.24,1-.05,1.45.19.44.58.8,1.07.98.5.15,1.08.13,1.59-.08.5-.21.93-.61,1.17-1.07.21-.47.24-1,.05-1.45-.19-.44-.59-.8-1.07-.98-1-.32-2.28.21-2.76,1.16Z"/><path class="cls-12" d="m226.14,107.15c-.07.96.23,1.88.84,2.49.61.61,1.53.91,2.49.84.96-.12,1.96-.6,2.7-1.34s1.22-1.74,1.34-2.7c.07-.96-.23-1.88-.84-2.49s-1.53-.91-2.49-.84c-1.95.21-3.83,2.1-4.05,4.05Z"/></g></svg>